<!DOCTYPE svg PUBLIC "-//W3C//DTD SVG 1.1//EN" "http://www.w3.org/Graphics/SVG/1.1/DTD/svg11.dtd">
<!-- Uploaded to: SVG Repo, www.svgrepo.com, Transformed by: SVG Repo Mixer Tools -->
<svg fill="#D2D2D4" width="64px" height="64px" viewBox="0 0 24 24" version="1" xmlns="http://www.w3.org/2000/svg">
<g id="SVGRepo_bgCarrier" stroke-width="0"/>
<g id="SVGRepo_tracerCarrier" stroke-linecap="round" stroke-linejoin="round"/>
<g id="SVGRepo_iconCarrier">
<path d="M2.2 9.4c0 1.3.2 3.3 2 5.1 1.6 1.6 6.9 5.2 7.1 5.4.2.1.4.2.6.2s.4-.1.6-.2c.2-.2 5.5-3.7 7.1-5.4 1.8-1.8 2-3.8 2-5.1 0-3-2.4-5.4-5.4-5.4-1.6 0-3.2.9-4.2 2.3-1-1.4-2.6-2.3-4.4-2.3-2.9 0-5.4 2.4-5.4 5.4z"/>
</g>
</svg>