<svg width="37" height="41" viewBox="0 0 37 41" fill="none" xmlns="http://www.w3.org/2000/svg">
<ellipse cx="18.5" cy="20.5" rx="18.5" ry="20.5" fill="#FFF4EE"/>
<path d="M27.5197 21.4093C27.5197 22.8892 27.5234 24.369 27.5197 25.853C27.5123 28.0025 26.6174 29.594 25.02 30.7184C24.0845 31.3715 23.0455 31.6609 21.9436 31.6609C19.5327 31.6609 17.1255 31.6733 14.7146 31.6567C13.0396 31.6443 11.5975 30.9829 10.4549 29.594C9.74861 28.7342 9.32708 27.7215 9.20505 26.5516C9.17917 26.3036 9.17547 26.0597 9.17547 25.8117C9.17547 22.8644 9.17177 19.9171 9.17547 16.9697C9.18656 14.8161 10.0814 13.2246 11.6788 12.1003C12.6217 11.443 13.6645 11.1578 14.7738 11.1578C17.1773 11.1578 19.5808 11.1454 21.9842 11.1619C23.6667 11.1743 25.1125 11.8398 26.2551 13.237C26.9539 14.0927 27.3718 15.1055 27.4901 16.2629C27.5382 16.7176 27.516 17.1723 27.5197 17.6229C27.5234 18.8878 27.5197 20.1485 27.5197 21.4093ZM10.5473 21.4093C10.5473 22.9264 10.5436 24.4393 10.5473 25.9564C10.551 26.9981 10.8912 27.8951 11.5272 28.6391C12.3814 29.6353 13.4463 30.119 14.6702 30.1273C17.0996 30.1438 19.5253 30.1314 21.9547 30.1314C22.7386 30.1314 23.4855 29.9412 24.1659 29.5031C25.4379 28.6887 26.1552 27.49 26.1552 25.8117C26.1552 22.8272 26.1552 19.8468 26.1552 16.8623C26.1552 15.8288 25.8187 14.936 25.1864 14.196C24.3397 13.1957 23.271 12.7038 22.0508 12.6955C19.5955 12.6748 17.144 12.6872 14.6887 12.6872C13.9233 12.6872 13.1986 12.8898 12.533 13.3114C11.2647 14.1299 10.5436 15.3287 10.5473 17.0069C10.5473 18.4744 10.5473 19.9419 10.5473 21.4093Z" fill="#2F3532"/>
<path d="M18.359 25.7907C15.9703 25.7907 14.0549 23.6577 14.0586 20.9956C14.0623 18.4038 16.0036 16.2791 18.3738 16.2832C20.7551 16.2832 22.6779 18.4203 22.6742 21.0576C22.6705 23.6701 20.7366 25.7907 18.359 25.7907ZM18.359 24.2612C19.9823 24.2612 21.3061 22.8186 21.3061 21.0452C21.3061 19.2636 19.9934 17.8127 18.3738 17.8127C16.7505 17.8127 15.4267 19.2553 15.4267 21.0287C15.4267 22.8103 16.7394 24.2612 18.359 24.2612Z" fill="#2F3532"/>
<path d="M22.2695 15.8951C22.2695 15.3082 22.6726 14.8369 23.1755 14.8369C23.6783 14.8369 24.0814 15.3123 24.0814 15.8951C24.0814 16.4697 23.6783 16.941 23.1829 16.9451C22.68 16.9492 22.2695 16.4821 22.2695 15.8951Z" fill="#2F3532"/>
</svg>
