<svg width="148" height="174" viewBox="0 0 148 174" fill="none" xmlns="http://www.w3.org/2000/svg">
<g clip-path="url(#clip0_1_1262)">
<path d="M80.5032 57.5638C78.2724 59.039 76.5932 60.5239 75.4558 61.6321C74.4307 60.6832 72.9491 59.4012 71.0307 58.0563C68.6046 56.3541 66.2322 54.6905 62.6809 53.6185C59.425 52.6358 56.7524 52.6262 55.2025 52.631C53.0278 52.6383 50.9141 52.6479 48.3464 53.6185C45.5786 54.664 43.8506 56.2358 43.36 56.7018C41.4343 58.5271 40.5532 60.3983 39.8697 61.8808C38.4077 65.0583 38.1417 67.8011 38.0001 69.4019C37.8757 70.8168 37.7609 73.4727 38.3736 76.5535C39.3377 81.3921 41.5563 84.5575 45.1027 89.4999C48.4441 94.1574 51.5463 97.3107 53.7014 99.4861C56.9012 102.712 59.8228 105.218 62.0512 107.007L70.401 113.913L75.5119 117.242C76.6761 116.354 78.4042 115.03 80.4983 113.42C84.5134 110.332 86.5538 108.76 88.1013 107.502C89.4144 106.435 92.2334 104.132 95.4552 101.092C99.3653 97.4 102.331 94.5993 105.426 90.2411C108.94 85.2915 110.507 81.3076 110.91 80.2549C111.842 77.8042 112.848 75.0952 112.904 71.3769C112.95 68.3106 112.331 65.9613 112.033 64.9665C111.496 63.1677 110.624 60.2607 108.045 57.5686C104.916 54.3067 101.196 53.365 99.6948 53.0077C96.207 52.1747 93.4025 52.5948 91.594 52.8845C86.4196 53.7054 82.8317 56.0233 80.5032 57.5638Z" stroke="#EEE7D1" stroke-miterlimit="10"/>
<path d="M57.072 52.3799C56.0469 51.3682 54.6776 49.7457 53.7062 47.4471C53.528 47.0246 52.7641 45.163 52.5835 42.6399C52.5005 41.4834 52.5176 39.8536 52.8324 39.8053C53.0619 39.7691 53.2156 40.6069 53.9552 41.9011C54.4458 42.7606 55.1267 43.9534 56.4472 44.8612C57.3478 45.4793 58.185 45.7208 59.0636 45.9719C60.0253 46.2471 60.7722 46.4596 60.9332 46.2181C61.2066 45.8101 59.4517 44.6487 58.0678 42.6423C56.3739 40.1844 56.0274 37.6106 55.9493 36.4782C55.7467 33.5567 56.701 31.4078 57.5699 29.4497C58.8635 26.5402 61.3091 22.7713 62.4294 23.1624C62.8199 23.2976 63.1641 23.9761 63.0518 26.2457" stroke="#EEE7D1" stroke-miterlimit="10"/>
<path d="M95.2085 52.4979C95.9822 51.7325 97.0805 50.4746 97.9494 48.6758C98.9599 46.5849 99.16 44.8006 99.3211 43.2505C99.5091 41.4179 99.7434 39.1532 98.8232 36.5938C97.9958 34.2904 96.507 32.5061 96.2067 32.6486C95.9773 32.7548 96.6461 33.8727 96.4557 35.2369C96.2116 37.0067 94.652 38.2622 93.3389 39.059" stroke="#EEE7D1" stroke-miterlimit="10"/>
<path d="M91.5956 34.508C90.9537 33.5711 90.2898 32.2697 90.2239 30.6859C90.0653 26.8203 93.6068 24.4686 92.9649 23.6573C92.3278 22.8533 88.0639 24.2223 85.362 27.3563C83.917 29.0319 83.2214 30.8573 83.1189 30.809C82.9774 30.7414 84.9544 27.6629 85.4864 23.4111C85.6109 22.4115 85.8306 20.5403 85.362 18.232C85.1545 17.2131 84.1733 12.389 80.0021 9.60274C78.5767 8.64903 76.8902 8.22891 73.5219 7.38385C72.6872 7.17379 69.1554 6.2901 68.9114 6.8913C68.7869 7.19311 69.6045 7.59149 71.2789 9.35647C72.5163 10.6603 72.8727 11.288 73.024 11.5754C73.2949 12.0896 73.744 12.9395 73.7709 14.0405C73.7904 14.7987 73.6049 15.5496 72.8995 16.8751C71.8964 18.756 71.1861 19.2727 69.9072 21.0666C69.4068 21.7692 68.3695 23.2396 67.5397 25.135C66.9832 26.405 66.4389 28.0468 66.168 30.0678" stroke="#EEE7D1" stroke-miterlimit="10"/>
<path d="M117.644 64.9594L146.808 55.5913" stroke="#EEE7D1" stroke-miterlimit="10"/>
<path d="M114.028 56.2068L130.73 48.4395" stroke="#EEE7D1" stroke-miterlimit="10"/>
<path d="M119.016 73.4677L129.111 72.2339" stroke="#EEE7D1" stroke-miterlimit="10"/>
<path d="M119.016 83.3311L138.332 86.9069" stroke="#EEE7D1" stroke-miterlimit="10"/>
<path d="M116.271 92.0835L146.808 101.7" stroke="#EEE7D1" stroke-miterlimit="10"/>
<path d="M108.545 46.3437L114.029 41.0415" stroke="#EEE7D1" stroke-miterlimit="10"/>
<path d="M103.685 37.7555L118.266 17.3701" stroke="#EEE7D1" stroke-miterlimit="10"/>
<path d="M97.2021 29.206L102.064 21.1924" stroke="#EEE7D1" stroke-miterlimit="10"/>
<path d="M52.542 36.4804L48.8467 29.2056" stroke="#EEE7D1" stroke-miterlimit="10"/>
<path d="M46.7279 43.6924L28.1562 18.355" stroke="#EEE7D1" stroke-miterlimit="10"/>
<path d="M40.994 50.9048L26.2861 35.3701" stroke="#EEE7D1" stroke-miterlimit="10"/>
<path d="M35.7586 59.4131L24.292 53.2466" stroke="#EEE7D1" stroke-miterlimit="10"/>
<path d="M32.7667 67.1807L0.861328 56.3301" stroke="#EEE7D1" stroke-miterlimit="10"/>
<path d="M31.6468 75.6869L9.33594 71.6499" stroke="#EEE7D1" stroke-miterlimit="10"/>
<path d="M32.1439 85.1177L19.0566 86.9068" stroke="#EEE7D1" stroke-miterlimit="10"/>
<path d="M34.3874 92.7012L0.861328 103.549" stroke="#EEE7D1" stroke-miterlimit="10"/>
<path d="M37.9049 100.346L16.8145 110.455" stroke="#EEE7D1" stroke-miterlimit="10"/>
<path d="M43.9845 107.249L33.6406 118.222" stroke="#EEE7D1" stroke-miterlimit="10"/>
<path d="M49.9669 112.737L28.9033 139.921" stroke="#EEE7D1" stroke-miterlimit="10"/>
<path d="M57.8089 116.619L46.2275 137.21" stroke="#EEE7D1" stroke-miterlimit="10"/>
<path d="M66.4199 119.702L64.4258 133.88" stroke="#EEE7D1" stroke-miterlimit="10"/>
<path d="M74.7178 121.057V154.963" stroke="#EEE7D1" stroke-miterlimit="10"/>
<path d="M83.2441 120.195L86.112 142.017" stroke="#EEE7D1" stroke-miterlimit="10"/>
<path d="M92.3428 117.237L98.8229 129.196" stroke="#EEE7D1" stroke-miterlimit="10"/>
<path d="M99.4941 113.785L119.015 140.786" stroke="#EEE7D1" stroke-miterlimit="10"/>
<path d="M106.799 107.99L121.009 123.215" stroke="#EEE7D1" stroke-miterlimit="10"/>
<path d="M112.908 100.346L122.378 105.399" stroke="#EEE7D1" stroke-miterlimit="10"/>
<path d="M72.665 65.8553C71.9431 63.3609 69.3155 62.3262 67.0457 61.4549C65.8707 61.0038 64.6669 60.7518 63.512 60.1976C61.4997 59.232 59.4741 58.8198 57.2721 58.444C54.7901 58.0206 52.6236 57.5845 50.2565 58.7418C49.3102 59.2045 48.4657 59.9412 47.5675 60.4954C46.8342 60.9478 46.1625 61.6227 45.7575 62.3647C45.3674 63.0795 44.5948 63.8535 44.3613 64.5898C44.078 65.4832 43.9648 66.2513 43.9648 67.187C43.9648 68.9054 44.12 70.6598 44.12 72.3981C44.12 74.3868 44.8742 75.9459 45.8265 77.7084C46.7048 79.3342 47.3045 81.3331 47.826 83.0849C47.9894 83.6338 48.4638 84.3763 48.4638 84.9129" stroke="#EEE7D1" stroke-width="3" stroke-linecap="round"/>
<path d="M52.4971 89.2305C52.5884 89.7123 53.021 90.4216 53.583 90.4216C54.2365 90.4216 54.0723 90.8179 54.4449 91.2404C55.0614 91.9397 55.2409 92.8472 55.7635 93.6309C56.6022 94.8886 57.6709 96.0252 58.5819 97.2373C59.329 98.2314 60.4389 98.9608 61.2192 99.9504C61.8946 100.807 62.5645 101.471 63.3825 102.2C63.9179 102.677 64.8616 103.182 65.0717 103.888C65.1833 104.262 65.2451 104.417 65.6836 104.417" stroke="#EEE7D1" stroke-width="3" stroke-linecap="round"/>
<path d="M70.8037 104.864C71.8494 104.864 72.8952 104.864 73.9409 104.864C74.0615 104.864 74.5581 104.792 74.6476 104.897C74.9965 105.306 74.3008 105.952 73.984 106.113C73.1184 106.553 70.0742 105.906 71.0537 105.906C72.7445 105.906 73.3485 107.549 74.3718 108.586C74.5765 108.793 74.9734 108.94 75.113 109.182C75.1967 109.326 75.1683 109.56 75.3888 109.62C75.5322 109.659 75.7681 109.526 75.7681 109.645C75.7681 109.887 75.7681 110.13 75.7681 110.373" stroke="#EEE7D1" stroke-width="3" stroke-linecap="round"/>
<path d="M72.2001 109.182C71.7771 109.136 71.4133 109.033 70.959 109.033" stroke="#EEE7D1" stroke-width="3" stroke-linecap="round"/>
<path d="M73.1306 106.948C72.5559 107.01 71.8634 107.793 71.7344 108.288" stroke="#EEE7D1" stroke-width="3" stroke-linecap="round"/>
<path d="M76.2334 107.395C76.5472 106.732 78.2736 106.238 78.9569 105.906C79.6536 105.567 80.292 105.172 80.9564 104.789C81.2445 104.623 82.0065 103.992 81.7149 104.152C81.1831 104.444 80.6578 105.481 80.4221 106.022C80.3402 106.209 80.205 106.941 80.0773 107.064C80.0196 107.119 79.8111 107.116 79.7412 107.089C79.6572 107.056 80.2716 106.894 80.3273 106.865C81.1753 106.427 81.7653 105.51 82.4388 104.864C82.7649 104.551 83.1797 104.456 83.5937 104.268C84.3903 103.906 84.9694 103.451 85.6967 103.003C86.4551 102.535 87.049 101.955 87.7479 101.439C89.4706 100.167 91.0878 98.4737 92.2124 96.6748" stroke="#EEE7D1" stroke-width="3" stroke-linecap="round"/>
<path d="M77.0088 64.2176C77.1161 63.7542 78.664 63.4952 79.06 63.1423C79.6044 62.6571 80.3044 62.5008 80.9217 62.1331C81.4055 61.8449 81.7028 61.5376 82.2834 61.5376" stroke="#EEE7D1" stroke-width="3" stroke-linecap="round"/>
<path d="M86.627 61.091C86.9897 60.4644 87.6198 59.3821 88.3335 59.0397C88.8013 58.8152 89.8935 58.9384 90.4192 58.8577C92.8506 58.4844 95.1731 58.1133 97.6416 58.1133C99.8134 58.1133 102.012 59.8673 103.649 61.1489C104.674 61.9514 105.73 63.3656 106.329 64.5154C106.77 65.3623 107.161 66.6745 107.251 67.6255C107.368 68.8583 107.57 70.1264 107.57 71.3643C107.57 72.3665 107.85 73.7256 107.26 74.6067C106.602 75.5896 106.044 76.7324 105.631 77.8326C105.42 78.3948 104.96 78.7779 104.812 79.3711C104.634 80.0869 104.362 80.9197 104.088 81.6044C103.661 82.676 103.307 83.8497 102.684 84.8468C102.192 85.6332 101.802 86.4999 101.296 87.2952C100.825 88.0351 100.167 88.5587 99.6584 89.2638C98.9103 90.3009 98.4546 91.4946 97.5641 92.4236C97.1907 92.813 96.4638 93.9951 95.9351 93.9951" stroke="#EEE7D1" stroke-width="3" stroke-linecap="round"/>
<path d="M50.946 67.1954C51.7468 66.3501 52.1691 65.7039 53.2386 65.1441C54.9929 64.2257 53.1606 67.6401 53.8074 67.3939C55.5045 66.7481 58.1917 66.5146 59.6164 67.8819C61.2084 69.4099 59.7905 72.55 59.0476 74.16C58.7402 74.8262 57.8731 76.5417 59.0476 74.8052C60.5679 72.5574 62.1619 70.3462 64.2963 68.585C64.9145 68.075 66.3932 66.8036 67.3474 67.4601C68.1338 68.0012 68.6336 69.0058 68.959 69.8423C69.8741 72.1939 70.0879 74.785 70.4242 77.2536C70.4288 77.2868 70.9332 81.5703 71.2344 81.4638C71.6926 81.3018 72.3541 79.9789 72.5099 79.735C73.6673 77.9246 74.8506 76.1422 76.0781 74.3751C76.3518 73.9811 77.6721 71.2191 78.5085 71.9929C79.1769 72.6111 79.5199 73.6871 79.8617 74.4744C80.1305 75.0937 80.5386 76.8152 81.3096 77.1378C81.9408 77.4018 82.9896 76.2432 83.2661 75.9798C86.228 73.1567 88.762 69.9018 91.2987 66.7322C92.5686 65.1454 93.8762 63.6248 94.8495 61.8603C94.8757 61.8128 95.2519 61.1192 95.3753 61.4219C95.6623 62.1259 95.167 63.0669 94.6858 63.5642C93.1187 65.1839 90.5297 64.6919 88.489 64.9952C86.6168 65.2734 84.4792 66.123 83.0247 67.3195C82.7002 67.5864 83.8959 67.0629 84.3003 67.1954C85.4462 67.5709 86.6078 66.2963 87.6961 66.0043C90.4957 65.2531 93.5582 66.1195 95.9441 67.5842C97.924 68.7996 98.9758 70.4088 99.5381 72.5554C99.8901 73.899 100.134 75.3248 99.8742 76.7077C99.7842 77.1879 99.6072 77.6987 99.0727 77.8657C97.9464 78.2176 97.1648 76.6491 96.7715 75.955C95.4212 73.5716 94.99 70.424 91.9882 69.528C89.885 68.9002 87.6798 68.6843 85.4897 68.6843C84.1966 68.6843 82.6973 68.4891 81.4217 68.7505C81.0081 68.8352 79.3394 70.132 80.3702 70.2228C81.2659 70.3017 82.156 70.058 83.0592 70.1318C85.5166 70.3325 87.4644 71.9192 89.1354 73.5314C91.9256 76.2236 94.3202 79.6977 95.1771 83.4572C95.389 84.387 95.8414 86.6086 95.065 87.3862C94.6203 87.8316 94.061 87.2635 93.5998 87.684C90.4851 90.5238 89.6249 82.9774 89.1698 81.3314C89.009 80.7497 88.4933 79.9845 88.2649 80.9427C87.7106 83.268 87.3536 85.8129 87.5754 88.1968C87.6522 89.0221 87.7797 89.8426 87.8339 90.67C87.8413 90.7824 87.9105 92.1062 87.6099 91.1994C86.963 89.2483 87.1485 87.0678 86.3774 85.1694C85.7719 83.6787 84.7961 83.7293 83.8176 85.0619C82.4452 86.9312 81.6858 89.4743 81.4217 91.7287C81.3546 92.3012 81.3708 92.8886 81.2751 93.4575C81.1609 94.1372 81.3232 92.0774 81.4389 91.3979C81.5633 90.6672 81.6948 89.9273 81.8871 91.2325C82.1743 93.1831 82.4699 95.0697 82.9213 96.9894C83.1929 98.1448 82.7061 100.248 81.1717 100.248C79.9881 100.248 78.8044 100.248 77.6208 100.248C75.2292 100.248 73.1059 100.44 70.9586 99.2806C69.8258 98.6691 68.6484 98.1442 67.6318 97.3534C66.0894 96.1536 64.8059 94.6393 63.3224 93.3665C58.5865 89.3029 54.6703 84.1527 51.7562 78.759C50.6153 76.6474 48.879 74.3033 48.4121 71.935C48.2733 71.231 48.6525 72.0158 48.7224 72.1501C49.0782 72.8329 49.4419 73.3827 50.2307 73.6472C51.3183 74.0119 52.5366 74.0687 53.6695 74.1931C55.666 74.4124 57.6688 74.6139 59.6509 74.9376C62.9277 75.4726 65.4916 76.8611 66.5975 80.0659C67.5638 82.8661 66.8947 85.4177 65.5978 87.9569C65.3369 88.4677 64.8827 89.5799 64.0464 89.1977C62.6091 88.5408 61.8508 86.5047 61.254 85.2273C60.7057 84.0539 59.2265 80.5013 59.9698 81.5713C60.3119 82.0639 60.5247 83.3267 60.7196 83.8046C61.6818 86.1637 62.9522 88.2097 65.1151 89.727C66.8975 90.9774 70.1779 93.3149 72.2514 91.4062C74.0638 89.7377 75.6127 87.2928 75.6127 84.8468C75.6127 83.7899 75.5398 80.6483 75.3369 81.6871C75.1514 82.6367 75.302 83.9149 75.311 84.8386C75.3343 87.2281 75.5221 89.528 75.9316 91.8859C76.2363 93.641 76.4397 95.5031 77.1296 97.1714C77.2109 97.368 77.3192 98.1054 77.3192 98.0151" stroke="#EEE7D1" stroke-width="3" stroke-linecap="round"/>
<path d="M78.6001 84.6365C78.7007 84.301 78.9261 84.1988 79.2346 83.9951C80.6294 83.074 82.0837 82.2366 83.5107 81.3673C84.4896 80.771 85.4596 80.1619 86.4351 79.5603C86.5996 79.4589 87.0752 79.1574 86.9592 79.312C86.4872 79.9414 85.4568 80.3239 84.8074 80.6294C82.4927 81.7179 80.1306 82.7215 77.7448 83.6434C76.6379 84.0711 75.2321 84.5827 74.048 84.9124C73.7072 85.0073 73.3399 85.1751 72.9997 85.0779C72.7094 84.995 73.1481 84.4665 73.3514 84.2434C74.4695 83.0163 75.8881 82.0349 77.1793 81.0087C78.5109 79.9505 79.846 78.8956 81.1313 77.7809C81.3611 77.5816 81.9792 76.9141 81.8003 77.1602C81.2858 77.8676 80.6017 78.5313 79.9519 79.112C79.1652 79.815 79.5588 79.1218 79.8415 78.6775" stroke="#EDE7D1" stroke-width="3" stroke-linecap="round"/>
<path d="M77.7317 80.2912C78.6578 81.2173 79.3009 81.8515 79.6008 83.1259C79.7461 83.7435 79.8962 84.4171 79.8353 85.0571C79.8254 85.161 79.7807 85.4121 79.6904 85.4778C79.125 85.889 76.4013 84.6005 76.0764 84.4984C74.1198 83.8835 72.1222 83.371 70.1933 82.6707C69.6701 82.4808 69.2631 82.2898 68.8621 81.9189C68.0261 81.1456 67.2367 80.3244 66.4068 79.5464C65.6495 78.8364 61.9032 76.6304 63.2066 75.1599C63.4078 74.9329 63.8367 74.9535 64.0894 74.9185C65.4144 74.7348 66.7244 74.4768 68.0345 74.2081C68.4671 74.1193 72.0104 72.8746 72.3727 73.7805C72.9694 75.2722 67.5327 76.5726 66.6275 76.6082C64.725 76.6831 65.0448 73.4068 66.393 72.8425C67.3739 72.4319 70.8852 72.3477 70.9037 70.9251C70.9184 69.7882 70.5217 68.5842 70.4071 67.449C70.3315 66.701 70.3248 65.7644 69.7863 65.1661C69.5502 64.9037 69.2898 64.6709 69.2898 64.2764C69.2898 63.7323 70.1042 64.2356 70.2691 64.4005C70.3714 64.5028 69.4737 64.2153 69.2622 64.1247C68.766 63.912 68.5687 63.2232 68.1104 62.9177C67.8595 62.7505 67.6083 62.507 67.4 62.3176C66.9608 61.9184 66.181 60.8003 65.5654 60.8003" stroke="#EDE7D1" stroke-width="10" stroke-linecap="round"/>
<path d="M64.9446 63.5319C63.8723 66.0027 63.03 68.648 62.4892 71.2841C62.2397 72.5004 62.0542 73.7126 61.9926 74.9533C61.9667 75.4768 62.1431 76.6013 61.8133 77.0776C61.4845 77.5526 61.111 76.1503 60.8615 75.6293C59.6461 73.0905 58.5518 70.5025 57.6475 67.8356C57.2799 66.7514 57.0489 65.5906 56.6268 64.5251C56.5766 64.3986 56.5108 64.2917 56.5026 64.1526C56.2941 60.6077 56.8338 71.2485 57.1233 74.7878C57.162 75.2599 57.1773 75.769 57.2751 76.2362C57.3248 76.4735 57.3577 76.2819 57.2889 76.1396C56.0357 73.5497 54.6293 71.0084 53.1783 68.5253C52.9731 68.1742 52.1474 67.2845 52.5299 66.7873C52.9085 66.2952 54.1666 66.3915 54.6956 66.3873C55.7072 66.3792 56.811 66.5207 57.813 66.3597C58.1118 66.3117 58.703 66.0661 58.3234 65.7114C57.6907 65.1202 56.771 64.7064 56.006 64.332C55.2003 63.9375 54.1964 63.4166 53.261 63.5181C52.4643 63.6046 52.1337 64.4259 51.6609 64.9527C50.9433 65.7523 51.0206 67.2106 51.4126 68.1253" stroke="#EDE7D1" stroke-width="10" stroke-linecap="round"/>
<path d="M54.1436 77.8085C54.3691 78.3885 54.8261 78.9306 55.1505 79.45C55.9006 80.6511 56.5644 81.8957 57.2748 83.1192C58.4924 85.2161 60.0478 87.2992 61.7647 89.0162C63.8533 91.1047 67.2425 91.6416 69.8549 92.9268C70.9076 93.4446 72.0401 93.8204 72.862 94.6924C73.5135 95.3836 73.9442 96.4509 74.6759 97.0236C75.1972 97.4315 75.6026 96.9238 76.0071 96.6236C77.8915 95.2248 79.8633 93.9568 81.7661 92.5819C83.5226 91.3127 85.2663 90.014 86.994 88.7058C87.9152 88.0084 88.5839 87.4545 89.2079 86.4574C90.7486 83.9957 91.9761 81.5265 92.6978 78.7051C92.8911 77.9496 92.808 77.1973 92.9599 76.4429C93.2716 74.8957 94.5584 72.3057 93.2289 70.946C91.6661 69.3477 90.2702 71.4737 89.3735 72.7737C87.9277 74.8698 86.6913 77.2788 86.0422 79.7535C85.8856 80.3506 85.6327 81.9655 84.8904 82.1881C84.2068 82.3932 83.105 81.8818 82.511 81.664C80.6095 80.9668 78.7534 80.0067 77.5934 78.2775C76.5627 76.7412 75.3466 73.7588 75.9519 71.8219C76.1648 71.1406 77.1045 70.4096 77.6693 70.0425C78.4713 69.5212 79.407 69.2931 80.3039 68.9942C81.1638 68.7075 81.9066 68.3093 82.7041 67.8906C84.173 67.1194 85.7093 66.789 87.3182 66.4836C90.1995 65.9368 93.5244 65.1444 95.7877 67.532C97.5315 69.3717 98.6072 71.3106 98.7051 73.9048C98.7592 75.3373 98.0461 76.6052 97.1947 77.712C95.8345 79.4802 94.2678 81.0925 92.953 82.8916C91.2078 85.2798 89.2908 86.9061 86.4698 88.0092C85.4139 88.4221 84.242 88.8706 83.4558 87.7954C82.5641 86.5758 82.1989 84.9158 81.8833 83.4641C81.3935 81.211 81.3316 78.8847 81.3316 76.5878C81.3316 76.3914 81.4328 75.6752 81.3316 75.5739" stroke="#EDE7D1" stroke-width="10" stroke-linecap="round"/>
<path d="M73.7588 104.003C76.3285 103.033 79.0009 102.329 81.5938 101.437C83.1502 100.902 84.0951 99.6692 85.1802 98.5131C86.3822 97.2325 87.7327 96.0986 88.9736 94.8577C89.6209 94.2103 90.2196 93.5357 90.9185 92.9403C91.7877 92.1999 92.8266 91.6839 93.6773 90.9264C94.6445 90.0651 95.3756 88.9733 96.1327 87.9331C97.1558 86.5274 98.2615 85.1745 99.2432 83.7397C99.4672 83.4124 99.2087 82.6129 99.2087 82.2499C99.2087 80.334 99.545 78.0747 98.9398 76.2357C98.6377 75.3178 98.376 74.4232 98.1535 73.4838C98.0744 73.1496 98.0048 72.9088 97.719 72.7183" stroke="#EDE7D1" stroke-width="10" stroke-linecap="round"/>
<path d="M74.876 68.1252C76.2795 68.1252 78.1379 68.0998 79.2211 67.0768C79.6002 66.7188 80.1976 66.4754 80.6419 66.2078C81.1603 65.8955 81.6555 65.5118 82.2489 65.3526C82.6081 65.2562 82.9747 65.277 83.3179 65.1181C84.0702 64.7698 84.9341 64.5251 85.7388 64.3111C87.9429 63.7249 90.1184 63.2723 92.3944 63.4766C94.4868 63.6644 96.4644 64.2724 98.4017 65.0284C99.8041 65.5757 101.169 66.9667 101.664 68.401C101.803 68.8056 101.708 69.4594 101.685 69.877C101.618 71.0747 101.478 72.2848 101.257 73.4634C100.921 75.258 100.511 76.9685 99.8845 78.6776C99.3255 80.2023 99.2592 82.2272 98.0913 83.3951" stroke="#EDE7D1" stroke-width="10" stroke-linecap="round"/>
<path d="M65.3171 79.4222C63.699 78.4513 62.2562 77.1792 60.7237 76.0841C58.4673 74.4716 56.0622 73.115 53.7439 71.601C52.1638 70.5691 50.7054 69.3204 49.0815 68.3732C48.8624 68.2454 48.1505 67.3989 48.0332 67.9594C47.9269 68.4672 47.8568 69.1039 47.9987 69.6147C48.5466 71.5869 49.1931 73.4943 49.6195 75.5047C49.8301 76.4976 50.3433 77.4213 50.792 78.3187C51.4898 79.7143 52.0695 81.1631 52.7508 82.5672C54.2676 85.6938 56.5231 88.2188 58.9581 90.623C59.9752 91.6272 61.3253 92.4057 62.1859 93.5473C63.0849 94.7399 64.0711 95.8742 65.0619 96.9889C65.9204 97.9547 66.9964 98.6295 67.9656 99.4649C68.4525 99.8847 69.2216 100.647 69.4001 101.272C69.4866 101.574 69.7222 101.661 69.9174 101.934C70.2503 102.4 70.3974 102.968 70.7175 103.431C70.8921 103.683 70.8554 104.028 71.152 104.127" stroke="#EDE7D1" stroke-width="10" stroke-linecap="round"/>
<path d="M80.4629 65.0214C80.8847 63.5028 82.1516 62.0363 83.0424 60.7591C83.3204 60.3604 83.5679 59.9685 83.939 59.6417C84.2022 59.4099 84.6769 58.9582 85.0563 58.9382C85.4105 58.9196 85.2333 59.0555 85.0494 59.1934C84.7277 59.4347 84.2103 59.6259 83.8079 59.6762C83.6499 59.696 83.3063 59.6049 83.1941 59.7452C83.1233 59.8337 82.7588 59.8971 82.6354 59.9245C82.4206 59.9723 82.4951 60.0947 82.3251 60.1797" stroke="#EDE7D1" stroke-width="6" stroke-linecap="round"/>
<path d="M81.3314 60.6763C81.2735 60.937 80.443 61.5523 80.1865 61.766C79.7168 62.1575 78.8921 62.4919 78.5726 63.035C78.3033 63.4929 77.8291 63.6616 77.4829 64.0282C77.3404 64.1792 76.9863 64.938 76.9863 64.4007" stroke="#EDE7D1" stroke-width="6" stroke-linecap="round"/>
<path d="M74.1312 64.4006C74.1312 63.9736 74.2626 63.6558 73.7588 63.6558" stroke="#EDE7D1" stroke-width="6" stroke-linecap="round"/>
<path d="M71.8969 63.1594C71.566 62.7985 70.9975 61.4214 70.5312 61.4214" stroke="#EDE7D1" stroke-width="6" stroke-linecap="round"/>
<path d="M93.7467 62.7869C93.21 61.5942 93.126 59.8777 93.126 58.5659" stroke="#EDE7D1" stroke-width="6" stroke-linecap="round"/>
<path d="M93.1255 58.5659C92.4816 58.5015 92.01 57.692 91.4151 57.4486C90.7726 57.1857 90.3835 57.3207 89.7184 57.4417C89.3977 57.5 88.6831 57.2782 88.4356 57.4762C88.192 57.671 87.7815 57.8844 87.4769 57.9521C87.1675 58.0208 85.1745 59.8209 85.056 58.8142C84.9683 58.0688 83.9887 59.2608 85.0629 58.1866C85.9322 57.3173 87.4487 56.952 88.6563 56.952C89.225 56.952 89.8595 57.0267 90.4219 56.9244C91.205 56.782 92.3427 56.8419 93.0566 56.5175C93.3004 56.4067 93.6067 56.4554 93.8704 56.4554C94.6638 56.4554 93.6856 56.3295 93.3738 56.3588C92.7589 56.4167 92.1391 56.5328 91.5254 56.3933C91.2376 56.3279 90.8729 56.2071 90.5805 56.2071C89.6192 56.2071 90.8984 56.3615 91.2702 56.3244C91.8421 56.2672 92.2742 55.9224 92.7531 55.6829C93.2108 55.4541 93.92 55.5864 94.4222 55.5864C94.5688 55.5864 95.6911 55.7105 95.236 55.7105" stroke="#EDE7D1" stroke-width="6" stroke-linecap="round"/>
<path d="M96.6016 55.3379C98.9482 55.3379 101.298 56.4343 102.933 58.0691C104.339 59.4754 105.779 61.1271 106.588 62.966C106.875 63.6184 107.296 64.5711 107.395 65.2696C107.471 65.8008 107.595 65.078 107.651 64.8834C107.76 64.4993 108.062 64.2011 107.775 63.8419C107.381 63.3501 107.21 62.7075 106.837 62.228C106.419 61.6915 106.147 61.0348 105.664 60.552C105.33 60.2176 105.027 59.8598 104.699 59.5313C104.539 59.3715 104.068 58.9381 104.547 58.9381C105.024 58.9646 105.031 58.9381 104.547 58.9381C104.345 58.9269 103.844 58.3295 104.05 58.3174C104.532 58.2891 105.774 59.0623 105.292 59.0623" stroke="#EDE7D1" stroke-width="6" stroke-linecap="round"/>
<path d="M105.292 62.5387C105.963 62.5387 106.335 62.63 106.906 62.8835C107.59 63.1875 106.874 61.918 106.409 61.918" stroke="#EDE7D1" stroke-width="6" stroke-linecap="round"/>
<path d="M106.533 61.4214C107.26 61.4214 107.278 61.9456 107.278 62.5387" stroke="#EDE7D1" stroke-width="6" stroke-linecap="round"/>
<path d="M107.278 62.5386C108.245 63.5051 108.52 64.5933 108.52 65.9112C108.52 66.9637 108.43 68.0395 108.368 69.0907C108.284 70.528 108.36 72.1876 107.651 73.4634" stroke="#EDE7D1" stroke-width="6" stroke-linecap="round"/>
<path d="M108.893 68.1251C109.266 68.536 109.568 69.0539 109.631 69.6149C109.652 69.81 109.677 70.9667 109.451 70.9667C109.444 70.9667 109.597 69.3766 109.665 69.1459C109.778 68.7661 109.762 68.4026 109.762 68.001" stroke="#EDE7D1" stroke-width="6" stroke-linecap="round"/>
<path d="M109.761 73.3394C109.695 74.0668 109.62 75.0413 109.292 75.6981C108.821 76.6399 108.15 77.4856 107.678 78.4293C107.245 79.2957 106.865 80.2509 106.533 81.1606C106.365 81.6219 106.091 82.0353 105.912 82.4986C105.776 82.8523 105.744 82.926 105.664 82.5262" stroke="#EDE7D1" stroke-width="6" stroke-linecap="round"/>
<path d="M105.54 80.1675C105.561 80.3368 106.537 81.0995 106.726 81.1538C107.115 81.2649 107.755 80.8406 107.402 80.6641" stroke="#EDE7D1" stroke-width="6" stroke-linecap="round"/>
<path d="M103.678 85.2574C103.51 85.447 103.228 86.4964 103.609 85.9747C103.736 85.8015 104.138 85.4381 104.361 85.3885C104.581 85.3395 104.326 85.2843 104.175 85.1333" stroke="#EDE7D1" stroke-width="6" stroke-linecap="round"/>
<path d="M104.175 85.1329C104.39 85.1329 105.592 85.1589 105.292 85.0088" stroke="#EDE7D1" stroke-width="6" stroke-linecap="round"/>
<path d="M99.209 91.7127C99.209 92.1305 99.5758 91.3458 99.7607 91.1609C99.927 90.9947 100.155 90.8716 100.299 90.6919C100.539 90.3918 100.989 90.0955 101.388 89.9815C101.821 89.858 102.155 89.3811 102.499 89.1056C102.764 88.8936 103.645 88.4849 103.306 88.4849" stroke="#EDE7D1" stroke-width="6" stroke-linecap="round"/>
<path d="M95.2363 93.4509C96.438 93.4509 97.7119 93.6122 98.8366 93.1061C99.3942 92.8552 99.9066 92.4814 100.45 92.2095" stroke="#EDE7D1" stroke-width="6" stroke-linecap="round"/>
<path d="M94.9876 96.5547C94.8203 97.0565 94.1518 97.3959 93.7875 97.7548C92.8658 98.6627 91.972 99.6238 90.8907 100.348C89.502 101.278 88.0168 101.778 86.5456 102.514C86.0349 102.769 85.6795 103.192 85.2076 103.507C84.8012 103.778 85.0892 104.118 85.18 103.755" stroke="#EDE7D1" stroke-width="6" stroke-linecap="round"/>
<path d="M96.7256 96.0579C97.0006 95.7329 97.9702 94.2562 97.8429 94.3199" stroke="#EDE7D1" stroke-width="6" stroke-linecap="round"/>
<path d="M76.7383 110.955C76.9188 110.624 77.4689 110.464 77.7728 110.273C78.1833 110.015 78.5057 109.678 78.8488 109.342C79.2304 108.967 79.6741 108.496 80.0902 108.169C81.3035 107.216 82.436 106.275 83.8008 105.507C84.851 104.916 86.1663 104.46 87.0424 103.631C87.9768 102.747 89.2416 102.33 90.2702 101.645" stroke="#EDE7D1" stroke-width="6" stroke-linecap="round"/>
<path d="M81.9521 108.348C82.0058 107.812 82.56 107.495 82.8212 107.169C82.9995 106.946 83.7671 106.835 83.566 106.734" stroke="#EDE7D1" stroke-width="6" stroke-linecap="round"/>
<path d="M83.5664 106.735C83.8104 106.064 85.0261 105.401 85.5665 104.955C85.7391 104.813 85.9293 104.786 86.0769 104.652C86.2015 104.538 86.9893 104.127 86.9184 104.127" stroke="#EDE7D1" stroke-width="6" stroke-linecap="round"/>
<path d="M86.9181 104.127C86.5126 104.342 86.1054 104.518 86.0491 104.996C85.9667 105.696 85.9285 105.195 85.8008 104.748" stroke="#EDE7D1" stroke-width="6" stroke-linecap="round"/>
<path d="M86.4219 102.886C86.7797 102.554 87.6999 101.645 88.222 101.645C88.5259 101.645 88.6435 101.829 88.5048 102.141C88.4125 102.349 88.289 103.006 88.4151 102.817C88.5308 102.644 88.8016 102.514 88.4082 102.514" stroke="#EDE7D1" stroke-width="6" stroke-linecap="round"/>
<path d="M75.124 112.445C75.396 112.228 76.2479 112.516 76.3586 112.128C76.4571 111.783 77.0015 111.502 77.2966 111.273C77.5813 111.051 79.182 109.637 79.4691 110.211" stroke="#EDE7D1" stroke-width="6" stroke-linecap="round"/>
<path d="M77.6074 112.073C77.7685 111.944 78.284 111.949 78.2282 111.949" stroke="#EDE7D1" stroke-width="6" stroke-linecap="round"/>
<path d="M73.6348 108.969C73.6348 109.641 73.9855 110.243 74.5314 110.68C74.8218 110.912 75.2685 111.74 75.2487 111.7" stroke="#EDE7D1" stroke-width="6" stroke-linecap="round"/>
<path d="M75 112.569C75 112.838 75 113.107 75 113.376C75 113.752 75.3284 113.745 75.1241 113.438" stroke="#EDE7D1" stroke-width="6" stroke-linecap="round"/>
<path d="M51.6611 90.4712C52.2138 91.4384 53.1827 92.2915 54.082 92.9541C55.447 93.9599 56.4954 95.1813 57.6891 96.375C58.4332 97.1191 59.2032 97.8202 59.9169 98.5959C60.5002 99.2299 61.228 99.6657 61.8342 100.272C63.0351 101.473 64.1821 102.81 65.4414 103.934C66.6686 105.03 67.8393 106.22 69.0416 107.355C69.5682 107.852 70.29 108.202 70.7796 108.721C71.2237 109.191 71.5645 110.055 72.1452 110.362C72.4472 110.522 73.0826 111.396 72.3935 110.707" stroke="#EDE7D1" stroke-width="6" stroke-linecap="round"/>
<path d="M72.7653 112.569C72.7213 112.174 71.5561 111.339 71.1514 111.204" stroke="#EDE7D1" stroke-width="6" stroke-linecap="round"/>
<path d="M71.1513 111.204C69.5511 109.663 67.887 108.333 66.4199 106.666C65.8363 106.002 65.0995 105.469 64.475 104.845C64.0942 104.464 63.7677 103.923 63.3301 103.631" stroke="#EDE7D1" stroke-width="6" stroke-linecap="round"/>
<path d="M63.3306 103.631C62.1167 102.504 61.0913 101.196 59.951 100.003C59.337 99.3604 58.9054 98.5079 58.2337 97.9202C57.0567 96.8903 55.8567 96.0329 54.7645 94.9407C54.1786 94.3548 53.5453 93.8456 52.9644 93.2647C52.7511 93.0514 52.3579 92.6986 52.0954 92.5819C51.7828 92.443 51.3561 92.2095 51.9091 92.2095" stroke="#EDE7D1" stroke-width="6" stroke-linecap="round"/>
<path d="M51.9092 92.9541C51.9882 93.6651 52.6469 93.8385 52.9299 94.3197C53.3476 95.0298 53.9389 95.6591 54.4473 96.306C55.1625 97.2163 56.2006 98.0393 57.0681 98.8028C57.9022 99.5367 58.6761 100.383 59.489 101.148C60.0865 101.71 60.7384 102.521 61.4684 102.886" stroke="#EDE7D1" stroke-width="6" stroke-linecap="round"/>
<path d="M46.1979 63.1592C45.7409 63.8827 44.869 64.4588 44.6116 65.3248C44.4227 65.9601 44.131 66.461 43.7425 67.0077C42.3274 68.9995 42.1394 71.0254 42.3493 73.3874C42.6588 76.8687 45.2759 79.7965 47.0738 82.6432C47.4253 83.1998 47.9346 83.6457 48.3359 84.1675C48.7821 84.7474 49.1305 85.3873 49.6119 85.94C50.3265 86.7605 51.0513 88.2426 52.0327 88.7333" stroke="#EDE7D1" stroke-width="6" stroke-linecap="round"/>
<path d="M51.0396 90.223C50.9184 90.201 50.3048 89.8031 50.2947 89.9747C50.2644 90.4903 50.7431 91.1914 50.8602 91.699C51.0232 92.4051 50.8865 92.2684 50.6671 91.7749C50.5676 91.5509 50.2869 91.5465 50.1085 91.3955C49.7912 91.127 49.6152 90.6794 49.2463 90.4782C48.9049 90.292 48.9563 89.9838 48.5566 89.8506" stroke="#EDE7D1" stroke-width="6" stroke-linecap="round"/>
<path d="M50.4189 87.2438C49.1308 86.574 48.1252 85.8032 47.06 84.8712C46.5472 84.4225 46.5519 84.3949 46.9428 85.0091C47.1414 85.3213 47.2252 85.8329 47.467 86.0989C47.8825 86.5559 47.6444 86.8143 47.7566 86.9265C48.0677 87.2376 48.4343 87.4671 48.5636 87.9197C48.6338 88.1654 48.6153 88.0129 48.4808 87.7748C48.1277 87.1502 47.8148 86.4592 47.3152 85.9333C46.8308 85.4234 46.2916 84.9749 45.8255 84.4505C44.9198 83.4316 45.9171 84.8942 46.0462 85.2298C46.1497 85.4989 46.633 86.0957 46.4462 86.0023" stroke="#EDE7D1" stroke-width="6" stroke-linecap="round"/>
<path d="M47.3154 87.8643C47.3154 88.0236 47.4369 88.4769 47.3154 88.1126" stroke="#EDE7D1" stroke-width="6" stroke-linecap="round"/>
<path d="M45.9496 86.4987C45.3534 84.9485 45.7082 82.2846 44.4323 81.0087C43.6684 80.2448 44.3113 81.6511 44.4323 82.0018C44.4914 82.1734 44.6638 82.2956 44.7012 82.4639C44.7272 82.5807 44.7081 82.9421 44.7081 82.8226C44.7081 82.3914 44.3271 82.1629 44.1495 81.8432C43.8317 81.2713 43.8594 81.6954 44.0322 82.1398C44.2193 82.6209 44.3555 83.0235 44.0322 82.2846C43.8444 81.8554 43.8722 81.4583 43.5908 81.0363" stroke="#EDE7D1" stroke-width="6" stroke-linecap="round"/>
<path d="M43.5916 81.0363C43.2213 79.7404 42.1071 78.6693 41.7018 77.4085C41.4964 76.7693 41.3717 76.0998 41.1707 75.4566C41.0809 75.1693 41.04 74.6362 40.8604 74.4565" stroke="#EDE7D1" stroke-width="6" stroke-linecap="round"/>
<path d="M41.7295 77.436C41.7295 78.001 41.7715 78.2024 42.1019 78.6154C42.2324 78.7785 42.4328 78.9087 42.5709 79.0775C42.7138 79.2521 42.8798 79.8607 42.5985 79.2982" stroke="#EDE7D1" stroke-width="6" stroke-linecap="round"/>
<path d="M44.0877 79.7949C44.018 80.4219 42.3496 81.1522 42.3496 80.5398" stroke="#EDE7D1" stroke-width="6" stroke-linecap="round"/>
<path d="M63.4543 56.5796C60.1425 56.5796 56.615 55.6655 53.3019 56.3589C51.8988 56.6526 50.5107 57.1828 49.081 57.4211C47.8173 57.6317 47.2392 58.2697 46.3842 59.1246C45.7668 59.742 45.3598 60.2009 44.8945 60.9247C44.3528 61.7674 44.1807 62.91 43.8392 63.8491C43.444 64.936 43.3972 65.9625 43.1564 67.07C42.9308 68.108 42.9359 69.2414 42.7909 70.2978C42.6487 71.3334 42.8079 72.3365 42.4736 73.3394" stroke="#EDE7D1" stroke-width="6" stroke-linecap="round"/>
<path d="M42.1019 72.0977C41.8591 72.0707 41.4339 71.6528 41.4743 71.7942C41.5482 72.0529 41.3847 72.2354 41.3571 72.4701C41.3233 72.7573 41.1864 71.5888 41.0467 71.477C40.7557 71.2442 40.9271 70.5041 40.8536 70.1734C40.7471 69.6945 40.7363 69.2526 40.7363 68.7457C40.7363 68.2492 40.7363 67.7526 40.7363 67.256C40.7363 66.6927 41.0343 66.3571 41.1157 65.8283C41.2715 64.8156 41.4743 65.5181 41.5985 66.0766C41.6584 66.3465 41.6966 67.455 41.4812 67.1318" stroke="#EDE7D1" stroke-width="6" stroke-linecap="round"/>
<path d="M42.7222 65.5179C42.6907 64.951 42.2256 64.466 42.2256 63.904C42.2256 63.4747 42.2848 63.01 42.3773 62.5935C42.4498 62.2673 43.4811 61.0205 43.2188 61.5452" stroke="#EDE7D1" stroke-width="6" stroke-linecap="round"/>
<path d="M43.2188 61.5453C43.8308 60.9332 44.9296 60.0691 45.7017 59.6831" stroke="#EDE7D1" stroke-width="6" stroke-linecap="round"/>
<path d="M45.7015 59.683C45.7739 59.3214 47.1104 58.1806 46.3154 58.6278C45.8853 58.8697 45.5458 59.1256 45.3291 59.5589" stroke="#EDE7D1" stroke-width="6" stroke-linecap="round"/>
<path d="M44.8331 60.428C44.8331 60.1459 44.7992 59.9203 44.9573 59.6831" stroke="#EDE7D1" stroke-width="6" stroke-linecap="round"/>
<path d="M43.9635 65.1456C43.5758 65.6038 43.0766 66.998 42.4738 67.1319C42.4058 67.147 42.6053 67.1287 42.5703 66.8974C42.498 66.418 42.4434 65.7072 42.1013 65.3249C42.0309 65.2461 41.9025 64.8972 41.8599 65.1525C41.7095 66.0554 41.8475 65.8416 42.5841 65.9042C43.9947 66.0243 45.4514 66.4314 46.812 66.8078C47.1451 66.8999 47.4666 67.1319 47.8121 67.1319" stroke="#EDE7D1" stroke-width="6" stroke-linecap="round"/>
<path d="M54.6401 55.3379C54.1194 55.3379 53.6988 55.3589 53.2194 55.4896C53.001 55.5492 52.9316 55.8259 52.778 55.8345C52.5724 55.8459 52.3632 55.8345 52.1572 55.8345" stroke="#EDE7D1" stroke-width="6" stroke-linecap="round"/>
<path d="M52.1575 55.8344C51.3986 55.8344 50.3682 55.7846 49.7366 56.2758C49.5402 56.4286 49.0108 56.8656 48.9297 56.7034" stroke="#EDE7D1" stroke-width="6" stroke-linecap="round"/>
<path d="M48.9295 56.7036C48.4276 56.7873 47.3642 57.3027 47.1914 57.8209" stroke="#EDE7D1" stroke-width="6" stroke-linecap="round"/>
<path d="M59.3535 59.7828C60.6093 59.6931 61.8391 59.3949 63.0904 59.2663C63.2794 59.2469 63.7978 59.3318 63.9715 59.2055C64.1859 59.0496 64.668 59.0198 64.6854 58.689C64.7069 58.2801 64.6614 57.8674 64.6854 57.4586C64.6989 57.2301 65.269 57.3035 64.9588 57.4586" stroke="#EDE7D1" stroke-width="6" stroke-linecap="round"/>
</g>
<defs>
<clipPath id="clip0_1_1262">
<rect width="146.277" height="173.81" fill="white" transform="translate(0.861328)"/>
</clipPath>
</defs>
</svg>
