<svg width="37" height="41" viewBox="0 0 37 41" fill="none" xmlns="http://www.w3.org/2000/svg">
<ellipse cx="18.5" cy="20.5" rx="18.5" ry="20.5" fill="#FFF4EE"/>
<path fill-rule="evenodd" clip-rule="evenodd" d="M18.5 10.9033C17.9753 10.9033 17.55 11.3309 17.55 11.8584V25.2299C17.55 26.2849 16.6993 27.1401 15.65 27.1401C14.6007 27.1401 13.75 26.2849 13.75 25.2299C13.75 24.1749 14.6007 23.3197 15.65 23.3197C16.1747 23.3197 16.6 22.8921 16.6 22.3646V19.4993C16.6 18.9718 16.1747 18.5442 15.65 18.5442C11.9773 18.5442 9 21.5374 9 25.2299C9 28.9223 11.9773 31.9156 15.65 31.9156C19.3227 31.9156 22.3 28.9223 22.3 25.2299V20.1314C23.6974 20.944 25.3202 21.4095 27.05 21.4095C27.5747 21.4095 28 20.9819 28 20.4544V17.589C28 17.0616 27.5747 16.6339 27.05 16.6339C24.4267 16.6339 22.3 14.4959 22.3 11.8584C22.3 11.3309 21.8747 10.9033 21.35 10.9033H18.5Z" fill="#2F3532"/>
</svg>
