<svg width="162" height="26" viewBox="0 0 162 26" fill="none" xmlns="http://www.w3.org/2000/svg">
<path d="M11.1875 20.1562H10.7188C10.3021 20.1562 9.97917 20.0833 9.75 19.9375C9.45833 19.7292 9.07292 19 8.59375 17.75L2.53125 2.0625H0.78125V1.25H8.40625V2.0625H5.90625L11.4375 16.25L16.4688 2.0625H13.9688V1.25H19.25V2.0625H17.6875L11.1875 20.1562ZM26.75 19.2188C26.8958 19.2188 27.0208 19.2292 27.125 19.25C27.3958 19.2917 27.5312 19.5417 27.5312 20H20.125V19.2188C20.6458 19.2188 21.0521 19.1875 21.3438 19.125C22.0104 18.9375 22.3438 18.375 22.3438 17.4375V7.4375H20.125V6.65625H25.3438V19.2188H26.75ZM25.6875 2.28125C25.6875 2.59375 25.625 2.88542 25.5 3.15625C25.1458 3.86458 24.5521 4.21875 23.7188 4.21875C23.4271 4.21875 23.1458 4.15625 22.875 4.03125C22.1458 3.69792 21.7812 3.11458 21.7812 2.28125C21.7812 1.96875 21.8542 1.66667 22 1.375C22.3542 0.666667 22.9271 0.3125 23.7188 0.3125C24.0312 0.3125 24.3333 0.385417 24.625 0.53125C25.3333 0.90625 25.6875 1.48958 25.6875 2.28125ZM35.4062 19.2188C35.5521 19.2188 35.6771 19.2292 35.7812 19.25C36.0521 19.2917 36.1875 19.5417 36.1875 20H29.125V19.2188C29.6458 19.2188 30.0521 19.1771 30.3438 19.0938C30.9479 18.9271 31.25 18.375 31.25 17.4375V7.4375H29.125V6.65625H34.0625L34.2188 9.46875C34.4271 8.98958 34.6979 8.54167 35.0312 8.125C36.0729 6.89583 37.3646 6.28125 38.9062 6.28125C39.6354 6.28125 40.3021 6.44792 40.9062 6.78125C42.4479 7.59375 43.2188 9.11458 43.2188 11.3438V19.2188H44.5625C44.7083 19.2188 44.8333 19.2292 44.9375 19.25C45.2083 19.2917 45.3438 19.5417 45.3438 20H38.2188V19.2188C38.7396 19.2188 39.1458 19.1771 39.4375 19.0938C39.9375 18.9062 40.1875 18.3542 40.1875 17.4375V10.9375C40.1875 10.4792 40.1354 10.0417 40.0312 9.625C39.6771 8.375 38.875 7.75 37.625 7.75C37.1667 7.75 36.7188 7.875 36.2812 8.125C35.0938 8.8125 34.4271 10 34.2812 11.6875L34.25 19.2188H35.4062ZM46.5625 7.5V6.71875H48.75V3.75L51.75 3.09375V6.71875H56.2812V7.5H51.75V17C51.7708 18.5625 52.3125 19.3646 53.375 19.4062C54.4167 19.3854 55.1667 18.4479 55.625 16.5938L56.4688 16.75C56.4062 17.0833 56.3229 17.4062 56.2188 17.7188C55.6354 19.4688 54.4583 20.3438 52.6875 20.3438C52.5208 20.3438 52.3438 20.3333 52.1562 20.3125C49.8854 20.1042 48.75 18.6354 48.75 15.9062V7.5H46.5625ZM68.8125 20.3125C67.25 20.2917 66.3125 19.3542 66 17.5C65.8333 17.9167 65.5938 18.3125 65.2812 18.6875C64.3229 19.7708 63.0521 20.3125 61.4688 20.3125C60.8229 20.3125 60.2292 20.2083 59.6875 20C58.25 19.4375 57.5312 18.3229 57.5312 16.6562C57.5312 16.3438 57.5625 16.0417 57.625 15.75C58.1458 13.5417 60.9062 12.4062 65.9062 12.3438V10.3438C65.8854 8.19792 65.0312 7.10417 63.3438 7.0625C62.9271 7.0625 62.5729 7.13542 62.2812 7.28125C61.8854 7.51042 61.5521 8.04167 61.2812 8.875C61.2188 9.08333 61.1667 9.23958 61.125 9.34375C60.875 10.0312 60.4271 10.375 59.7812 10.375C59.6146 10.375 59.4479 10.3542 59.2812 10.3125C58.6562 10.125 58.3438 9.69792 58.3438 9.03125C58.3438 8.67708 58.4583 8.32292 58.6875 7.96875C59.4583 6.84375 61.1042 6.28125 63.625 6.28125C67.1042 6.30208 68.8646 7.91667 68.9062 11.125V17.6875C68.9271 18.7083 69.1875 19.2396 69.6875 19.2812C70.3333 19.2604 70.7292 18.5104 70.875 17.0312L71.6875 17.0625C71.6667 17.5417 71.6042 17.9688 71.5 18.3438C71.1667 19.6562 70.2708 20.3125 68.8125 20.3125ZM62.75 19.0312C63.0625 19.0312 63.3854 18.9583 63.7188 18.8125C64.8229 18.3333 65.5521 17.3646 65.9062 15.9062V13.1875C64.6771 13.2083 63.6771 13.3125 62.9062 13.5C61.4062 13.875 60.6562 14.7708 60.6562 16.1875C60.6562 16.4792 60.6771 16.75 60.7188 17C60.9271 18.3542 61.6042 19.0312 62.75 19.0312ZM76.4062 11.3438C76.4062 12.0938 76.4479 12.7292 76.5312 13.25C76.8229 14.875 77.6875 15.6875 79.125 15.6875C79.5833 15.6875 79.9896 15.6146 80.3438 15.4688C81.3646 14.9896 81.875 13.6042 81.875 11.3125C81.875 10.5625 81.8229 9.91667 81.7188 9.375C81.4479 7.83333 80.5938 7.0625 79.1562 7.0625C78.7396 7.0625 78.3646 7.125 78.0312 7.25C76.9479 7.6875 76.4062 9.05208 76.4062 11.3438ZM79.2188 6.28125C80.4479 6.28125 81.5521 6.55208 82.5312 7.09375C82.6354 6.73958 82.7812 6.40625 82.9688 6.09375C83.5729 5.11458 84.375 4.625 85.375 4.625C85.6667 4.625 85.9479 4.67708 86.2188 4.78125C86.8854 5.05208 87.2188 5.53125 87.2188 6.21875C87.2188 6.28125 87.2083 6.35417 87.1875 6.4375C87.0833 7 86.75 7.28125 86.1875 7.28125C85.9583 7.28125 85.7188 7.16667 85.4688 6.9375C85.0938 6.60417 84.7708 6.4375 84.5 6.4375C83.9167 6.45833 83.4792 6.82292 83.1875 7.53125C84.3542 8.44792 84.9479 9.69792 84.9688 11.2812C84.9688 12.4688 84.6042 13.5208 83.875 14.4375C82.7292 15.8125 81.1458 16.5 79.125 16.5H79.0312L76.125 16.4688C76 16.4688 75.8646 16.4792 75.7188 16.5C75.1146 16.625 74.8125 16.9375 74.8125 17.4375C74.8333 18.1042 75.2604 18.4688 76.0938 18.5312L82.0938 18.6562C82.3646 18.6562 82.6458 18.6771 82.9375 18.7188C85.1042 18.9896 86.1875 20.0938 86.1875 22.0312C86.1875 22.6146 86.0208 23.1562 85.6875 23.6562C84.6875 25.2188 82.5521 26 79.2812 26C77.9688 26 76.8438 25.8125 75.9062 25.4375C74.5104 24.875 73.8125 24.0208 73.8125 22.875C73.8125 22.1667 74.125 21.4792 74.75 20.8125C73.9375 20.2292 73.5208 19.4062 73.5 18.3438C73.5 17.9896 73.5625 17.6458 73.6875 17.3125C74.0833 16.2083 74.8958 15.6562 76.125 15.6562C75.9375 15.5521 75.75 15.4271 75.5625 15.2812C74.0625 14.1979 73.3125 12.8854 73.3125 11.3438C73.3125 10.1771 73.6667 9.16667 74.375 8.3125C75.5 6.95833 77.1146 6.28125 79.2188 6.28125ZM79.2812 25.1875C80.2812 25.1875 81.1979 25.0938 82.0312 24.9062C83.8021 24.4896 84.6875 23.8125 84.6875 22.875C84.6875 22.6875 84.6562 22.5104 84.5938 22.3438C84.3854 21.7396 83.5521 21.4375 82.0938 21.4375L76.6562 21.375C76.2396 21.375 75.8542 21.3125 75.5 21.1875C75.1042 21.6875 74.8958 22.1979 74.875 22.7188C74.875 22.9896 74.9375 23.25 75.0625 23.5C75.6042 24.625 77.0104 25.1875 79.2812 25.1875ZM95.0312 7.0625C94.6354 7.0625 94.2708 7.13542 93.9375 7.28125C92.4792 7.92708 91.7083 9.58333 91.625 12.25L94.4062 12.3125C95.2812 12.3542 95.9583 12.3125 96.4375 12.1875C97.2917 11.9583 97.7188 11.3333 97.7188 10.3125C97.7188 9.89583 97.6667 9.48958 97.5625 9.09375C97.2083 7.73958 96.3646 7.0625 95.0312 7.0625ZM100.625 16.9062C100.5 17.1979 100.354 17.4896 100.188 17.7812C99.1458 19.4688 97.4479 20.3125 95.0938 20.3125C93.6979 20.3125 92.4479 19.9792 91.3438 19.3125C89.3229 18.1042 88.3125 16.1146 88.3125 13.3438C88.3125 11.7396 88.6979 10.3333 89.4688 9.125C90.6771 7.22917 92.5208 6.28125 95 6.28125C96.3125 6.28125 97.4896 6.55208 98.5312 7.09375C100.094 7.90625 100.875 9.09375 100.875 10.6562C100.875 11.2604 100.708 11.7604 100.375 12.1562C99.6667 12.9062 97.8854 13.25 95.0312 13.1875L91.625 13.125C91.625 13.1458 91.625 13.1667 91.625 13.1875C91.7292 17.3542 93.0833 19.4375 95.6875 19.4375C96.0208 19.4375 96.3542 19.3958 96.6875 19.3125C98.125 18.9792 99.1875 18.0938 99.875 16.6562L100.625 16.9062ZM117.188 20H102.844V19.1875H105.344V2.0625H102.844V1.25H111.344V2.0625H108.688V19.1875H112.562C113.042 19.1875 113.479 19.1042 113.875 18.9375C114.792 18.5417 115.469 17.5521 115.906 15.9688L116.594 13.5312H117.344L117.188 20ZM121.969 13.2812C121.969 13.9688 122 14.5938 122.062 15.1562C122.354 18.0729 123.542 19.5312 125.625 19.5312C127.979 19.4896 129.177 17.3646 129.219 13.1562C129.219 12.3438 129.177 11.6042 129.094 10.9375C128.74 8.35417 127.573 7.0625 125.594 7.0625C123.385 7.22917 122.177 9.30208 121.969 13.2812ZM125.688 6.28125C127.229 6.28125 128.594 6.6875 129.781 7.5C131.615 8.79167 132.531 10.6979 132.531 13.2188C132.531 15.0938 131.958 16.6875 130.812 18C129.458 19.5417 127.698 20.3125 125.531 20.3125C123.948 20.3125 122.552 19.8542 121.344 18.9375C119.552 17.6042 118.656 15.6771 118.656 13.1562C118.656 11.3438 119.208 9.8125 120.312 8.5625C121.667 7.04167 123.458 6.28125 125.688 6.28125ZM140.281 7.4375H138.125L141.875 17.5625L145.75 7.4375H143.312V6.65625H148.219C148.219 6.88542 148.198 7.0625 148.156 7.1875C148.115 7.35417 147.896 7.4375 147.5 7.4375C147.396 7.4375 147.292 7.44792 147.188 7.46875C146.854 7.53125 146.562 7.85417 146.312 8.4375L141.844 20.1562H141.156C140.76 20.1562 140.438 20.0938 140.188 19.9688C139.792 19.7812 139.375 19.1042 138.938 17.9375L135.062 7.4375H133.75V6.65625H140.281V7.4375ZM156.156 7.0625C155.76 7.0625 155.396 7.13542 155.062 7.28125C153.604 7.92708 152.833 9.58333 152.75 12.25L155.531 12.3125C156.406 12.3542 157.083 12.3125 157.562 12.1875C158.417 11.9583 158.844 11.3333 158.844 10.3125C158.844 9.89583 158.792 9.48958 158.688 9.09375C158.333 7.73958 157.49 7.0625 156.156 7.0625ZM161.75 16.9062C161.625 17.1979 161.479 17.4896 161.312 17.7812C160.271 19.4688 158.573 20.3125 156.219 20.3125C154.823 20.3125 153.573 19.9792 152.469 19.3125C150.448 18.1042 149.438 16.1146 149.438 13.3438C149.438 11.7396 149.823 10.3333 150.594 9.125C151.802 7.22917 153.646 6.28125 156.125 6.28125C157.438 6.28125 158.615 6.55208 159.656 7.09375C161.219 7.90625 162 9.09375 162 10.6562C162 11.2604 161.833 11.7604 161.5 12.1562C160.792 12.9062 159.01 13.25 156.156 13.1875L152.75 13.125C152.75 13.1458 152.75 13.1667 152.75 13.1875C152.854 17.3542 154.208 19.4375 156.812 19.4375C157.146 19.4375 157.479 19.3958 157.812 19.3125C159.25 18.9792 160.312 18.0938 161 16.6562L161.75 16.9062Z" fill="white"/>
</svg>
