<svg width="37" height="41" viewBox="0 0 37 41" fill="none" xmlns="http://www.w3.org/2000/svg">
<ellipse cx="18.5" cy="20.5" rx="18.5" ry="20.5" fill="#FFF4EE"/>
<path d="M27.8939 28.9422C27.8697 28.8564 27.8471 28.7852 27.8262 28.7282C27.4792 27.7007 26.8161 26.4396 25.8372 24.9445L25.8166 24.9102L25.8062 24.8934L25.7957 24.8762H25.7852C25.341 24.18 25.0597 23.7119 24.9419 23.4722C24.7263 23.0157 24.678 22.5535 24.7959 22.0853C24.8791 21.7315 25.1917 20.9844 25.733 19.8429C26.0178 19.238 26.2433 18.7531 26.4098 18.3878C27.6109 15.7627 28.1316 14.0852 27.9719 13.3547L27.9098 13.184C27.8681 13.0812 27.7606 12.9872 27.5872 12.9014C27.4134 12.8159 27.1914 12.8017 26.9206 12.8587L23.9216 12.8928C23.8731 12.8645 23.8037 12.8671 23.7133 12.9014C23.623 12.9357 23.5779 12.9529 23.5779 12.9529L23.5257 12.9958L23.4843 13.0473C23.4495 13.0814 23.4114 13.1413 23.3697 13.2269C23.3282 13.3122 23.2935 13.4124 23.2658 13.5265C22.9393 14.9075 22.5681 16.1914 22.1515 17.3783C21.8946 18.086 21.6587 18.6994 21.4432 19.2187C21.2281 19.7379 21.0476 20.1204 20.9019 20.3655C20.756 20.611 20.6244 20.8076 20.5061 20.9561C20.388 21.1047 20.2979 21.1675 20.2355 21.1445C20.173 21.1215 20.1141 21.0987 20.0583 21.076C19.9612 20.9732 19.883 20.8334 19.8241 20.6565C19.765 20.4796 19.7252 20.257 19.7043 19.9888C19.6836 19.7204 19.6714 19.4896 19.6679 19.2955C19.6646 19.1016 19.6661 18.8274 19.6732 18.4736C19.6804 18.1197 19.6836 17.8802 19.6836 17.7546C19.6836 17.3209 19.6888 16.8501 19.6991 16.3422C19.7096 15.8343 19.7181 15.4319 19.7252 15.1355C19.7323 14.8387 19.7356 14.5248 19.7356 14.1938C19.7356 13.8628 19.7233 13.6032 19.6991 13.4148C19.6752 13.2267 19.6384 13.044 19.59 12.867C19.5413 12.6901 19.4701 12.5532 19.3766 12.4561C19.2829 12.3591 19.1664 12.2821 19.0277 12.2249C18.6598 12.088 18.1912 12.0139 17.6218 12.0024C16.3307 11.9797 15.501 12.1167 15.1331 12.4135C14.9873 12.5389 14.8554 12.7102 14.7374 12.9269C14.6125 13.178 14.595 13.3151 14.6853 13.3377C15.1018 13.4403 15.3968 13.6857 15.5703 14.0737L15.6329 14.2793C15.6815 14.4276 15.7301 14.6903 15.7787 15.0668C15.8273 15.4434 15.8586 15.86 15.8724 16.3163C15.907 17.1495 15.907 17.8629 15.8724 18.4562C15.8376 19.0499 15.8048 19.512 15.7735 19.843C15.7422 20.174 15.6953 20.4422 15.6329 20.6475C15.5703 20.853 15.5287 20.9785 15.5079 21.0241C15.487 21.0697 15.4697 21.0984 15.4559 21.1097C15.3656 21.1665 15.2718 21.1955 15.1747 21.1955C15.0774 21.1955 14.9595 21.1155 14.8206 20.9556C14.6819 20.7958 14.5378 20.5762 14.3885 20.2965C14.2393 20.0168 14.0709 19.6259 13.8834 19.1238C13.696 18.6217 13.5016 18.0282 13.3003 17.3435L13.1338 16.8469C13.0296 16.5274 12.8874 16.0622 12.7069 15.4517C12.5263 14.841 12.3666 14.2503 12.2278 13.6796C12.1724 13.44 12.089 13.2575 11.978 13.1319L11.9259 13.0804C11.8912 13.0349 11.8356 12.9865 11.7593 12.9349C11.6829 12.8834 11.6031 12.8465 11.5198 12.8237L8.66657 12.8578C8.37501 12.8578 8.17718 12.9664 8.07302 13.1833L8.03133 13.2859C8.0105 13.343 8 13.4343 8 13.5599C8 13.6854 8.02083 13.8395 8.06251 14.022C8.47903 15.6314 8.93198 17.1835 9.42137 18.6786C9.91075 20.1737 10.336 21.378 10.6969 22.2905C11.0579 23.2036 11.4258 24.0655 11.8007 24.8756C12.1756 25.6859 12.4238 26.2053 12.5452 26.4334C12.6668 26.662 12.7622 26.8329 12.8317 26.947L13.092 27.3578C13.2586 27.6318 13.5033 27.9599 13.8261 28.3421C14.149 28.7246 14.5065 29.1012 14.8987 29.4724C15.291 29.843 15.7474 30.1455 16.2681 30.3794C16.7887 30.6135 17.2955 30.7075 17.7884 30.6622H18.9859C19.2288 30.6277 19.4128 30.5021 19.5379 30.2854L19.5793 30.1996C19.6072 30.1315 19.6333 30.0257 19.6573 29.8833C19.6817 29.7406 19.6938 29.5835 19.6938 29.4125C19.6867 28.9218 19.7094 28.4796 19.7613 28.0859C19.8132 27.6923 19.8724 27.3956 19.9386 27.1957C20.0047 26.996 20.0793 26.8275 20.1624 26.691C20.2456 26.5541 20.3049 26.4711 20.3397 26.4426C20.3743 26.4139 20.4019 26.3944 20.4227 26.3827C20.5893 26.2914 20.7854 26.3798 21.0112 26.6483C21.2369 26.9165 21.4485 27.2476 21.6465 27.6412C21.8444 28.0352 22.0821 28.4772 22.3597 28.9678C22.6375 29.4587 22.8804 29.8235 23.0886 30.0636L23.2968 30.269C23.4358 30.4061 23.6163 30.5316 23.8385 30.6457C24.0603 30.7598 24.2546 30.7883 24.4215 30.7313L27.0872 30.6629C27.3508 30.6629 27.556 30.5912 27.7015 30.4488C27.8473 30.3061 27.9339 30.1489 27.9619 29.978C27.9897 29.8069 27.9912 29.6127 27.9672 29.3956C27.9425 29.1791 27.9181 29.0277 27.8939 28.9422Z" fill="#2F3532"/>
</svg>
